PathFileType	4	(X/Y/Z)	D:\TRACE\spot_10-12-23\spot_arm_body_motion_3_3-platform.trc
DataRate	CameraRate	NumFrames	NumMarkers	Units	OrigDataRate	OrigDataStartFrame	OrigNumFrames
100.00	100.00	      48	5	mm	100.00	1	      7000
Frame#	Time	Left_Front			Right_Front			Left_Aft			Right_Aft			Post			
		X1	Y1	Z1	X2	Y2	Z2	X3	Y3	Z3	X4	Y4	Z4	X5	Y5	Z5	

1	0.000	-820.11273	123.35055	-602.56134	752.86340	126.60790	-595.60730	-736.47870	-79.18583	517.34247	681.01349	-89.94717	602.35461	-37.21421	906.09277	-784.38318	
2	0.010	-820.06506	123.29144	-602.55054	752.92651	126.62430	-595.58832	-736.43872	-79.22972	517.33435	680.99933	-89.96811	602.30518	-37.23423	906.01489	-784.38519	
3	0.020	-820.09448	123.30508	-602.54736	752.89679	126.61807	-595.58661	-736.43909	-79.22368	517.35028	680.90863	-89.92915	602.36157	-37.29351	905.98096	-784.34113	
4	0.030	-820.09827	123.29893	-602.57037	752.87018	126.61751	-595.61945	-736.45825	-79.22197	517.32690	680.98474	-89.97240	602.34576	-37.29727	905.96307	-784.33398	
5	0.040	-820.09515	123.31266	-602.57825	752.85840	126.60948	-595.61279	-736.42297	-79.25588	517.32635	680.94690	-90.00018	602.36536	-37.31315	905.93604	-784.27008	
6	0.050	-820.07605	123.34042	-602.56244	752.88843	126.64085	-595.60840	-736.45697	-79.25016	517.34283	680.93939	-89.96336	602.33838	-37.30245	905.98767	-784.24042	
7	0.060	-820.06146	123.33907	-602.54248	752.88025	126.62972	-595.60754	-736.44666	-79.24108	517.36145	680.96954	-89.99893	602.34937	-37.31598	906.04272	-784.24249	
8	0.070	-820.08972	123.33878	-602.54419	752.91003	126.64015	-595.58215	-736.44031	-79.23965	517.35400	681.02679	-89.95248	602.37946	-37.29670	906.09076	-784.23602	
9	0.080	-820.07410	123.29711	-602.50372	752.87183	126.64887	-595.59711	-736.45282	-79.23300	517.35309	680.96362	-89.97399	602.35345	-37.35258	906.06598	-784.24670	
10	0.090	-820.10461	123.33532	-602.55231	752.86066	126.60720	-595.58063	-736.44702	-79.23669	517.32825	680.90448	-90.02073	602.30969	-37.31857	906.00488	-784.28680	
11	0.100	-820.12036	123.33924	-602.54602	752.87860	126.62840	-595.59735	-736.42065	-79.27534	517.31134	680.99420	-89.95943	602.38538	-37.23309	906.02289	-784.31134	
12	0.110	-820.09448	123.35394	-602.57404	752.84961	126.63808	-595.61414	-736.47693	-79.23570	517.33942	680.95026	-89.96527	602.34271	-37.25418	906.02716	-784.25671	
13	0.120	-820.11053	123.34551	-602.55884	752.88507	126.60329	-595.59491	-736.49115	-79.21094	517.34296	681.04285	-89.94970	602.34503	-37.20652	906.00897	-784.34906	
14	0.130	-820.08118	123.33047	-602.53186	752.83740	126.62108	-595.57587	-736.49670	-79.19687	517.36053	680.99133	-89.93495	602.33746	-37.20855	906.00732	-784.33557	
15	0.140	-820.07715	123.32331	-602.56250	752.89612	126.62704	-595.59113	-736.41742	-79.26558	517.34088	680.99579	-89.93513	602.38495	-37.19042	906.00592	-784.40247	
16	0.150	-820.06976	123.30213	-602.60345	752.83221	126.61229	-595.58685	-736.46588	-79.21115	517.37170	680.97083	-89.98966	602.37140	-37.26435	906.05328	-784.39191	
17	0.160	-820.08038	123.30901	-602.54724	752.86584	126.62902	-595.60938	-736.44873	-79.24961	517.31946	680.94794	-90.00189	602.34277	-37.22799	906.07391	-784.39703	
18	0.170	-820.09943	123.32156	-602.53027	752.85101	126.61975	-595.59009	-736.48358	-79.19370	517.34814	680.93457	-89.96156	602.36127	-37.22882	906.09784	-784.30444	
19	0.180	-820.07928	123.34629	-602.54132	752.87042	126.67546	-595.58667	-736.44440	-79.22935	517.32233	680.91870	-89.95673	602.33221	-37.12225	906.07074	-784.24646	
20	0.190	-820.13696	123.32798	-602.55945	752.81042	126.64929	-595.60461	-736.50751	-79.21302	517.36816	680.90619	-89.91245	602.36877	-37.20774	906.06848	-784.22382	
21	0.200	-820.05750	123.29492	-602.55695	752.84961	126.67141	-595.61078	-736.47473	-79.25439	517.32129	680.96680	-89.97480	602.37189	-37.20787	905.98602	-784.16425	
22	0.210	-820.08679	123.33292	-602.57056	752.85242	126.62128	-595.59888	-736.42731	-79.20834	517.38220	680.96295	-89.93719	602.35034	-37.26313	905.98096	-784.14258	
23	0.220	-820.06702	123.29688	-602.54950	752.86963	126.64999	-595.59979	-736.44550	-79.24617	517.35223	680.96326	-89.96896	602.33398	-37.24312	906.01215	-784.16022	
24	0.230	-820.09192	123.34150	-602.57190	752.85651	126.63479	-595.60675	-736.49756	-79.19309	517.34491	680.97406	-89.95860	602.34454	-37.22215	905.98346	-784.24780	
25	0.240	-820.07568	123.32828	-602.57251	752.87036	126.62592	-595.59131	-736.49152	-79.21238	517.33759	680.97040	-89.96565	602.37085	-37.18384	905.96075	-784.26941	
26	0.250	-820.11804	123.31146	-602.57098	752.82141	126.62296	-595.60309	-736.45074	-79.23220	517.35156	680.94507	-89.94073	602.39545	-37.22898	905.98767	-784.36053	
27	0.260	-820.11102	123.33582	-602.57849	752.87512	126.63656	-595.62085	-736.47437	-79.21028	517.35992	680.95996	-89.97800	602.35101	-37.14732	906.00629	-784.40601	
28	0.270	-820.08350	123.36417	-602.53168	752.82111	126.65944	-595.61438	-736.45984	-79.24606	517.33765	680.95099	-89.98046	602.30420	-37.19594	906.02734	-784.41888	
29	0.280	-820.09045	123.36519	-602.55444	752.83777	126.66471	-595.59009	-736.45959	-79.25925	517.34583	680.95819	-89.97111	602.36157	-37.23228	906.05493	-784.38281	
30	0.290	-820.04706	123.31663	-602.57098	752.87048	126.65501	-595.58521	-736.43127	-79.25216	517.38074	681.00244	-89.91965	602.37445	-37.21369	906.00531	-784.35779	
31	0.300	-820.15479	123.33865	-602.57043	752.86267	126.66093	-595.61853	-736.47449	-79.22248	517.31604	680.97693	-89.92959	602.38171	-37.19275	905.98596	-784.23358	
32	0.310	-820.11511	123.30026	-602.53082	752.83044	126.62566	-595.62604	-736.48077	-79.21351	517.33276	680.99579	-89.93739	602.36127	-37.19172	905.98785	-784.12219	
33	0.320	-820.07849	123.32450	-602.58173	752.81281	126.63703	-595.60510	-736.49689	-79.22751	517.31000	681.00610	-89.94391	602.36462	-37.26036	905.97772	-784.13678	
34	0.330	-820.12878	123.35786	-602.53662	752.85126	126.64062	-595.58276	-736.48792	-79.20028	517.31885	680.95471	-89.93216	602.36896	-37.32914	906.04358	-784.19867	
35	0.340	-820.10364	123.36556	-602.55347	752.82733	126.68353	-595.61914	-736.48492	-79.17699	517.33032	680.93024	-89.89648	602.31940	-37.29217	906.08850	-784.23639	
36	0.350	-820.11285	123.29580	-602.55841	752.85919	126.65847	-595.60156	-736.46490	-79.20512	517.33173	681.01917	-89.92399	602.33191	-37.26791	906.10059	-784.32831	
37	0.360	-820.16260	123.39822	-602.55634	752.84961	126.62592	-595.57947	-736.46100	-79.21884	517.35333	680.98145	-89.96712	602.35168	-37.34800	906.08008	-784.39868	
38	0.370	-820.09985	123.33218	-602.53918	752.83820	126.65453	-595.59265	-736.45343	-79.26107	517.34296	680.98212	-89.94532	602.33923	-37.30581	906.07465	-784.44440	
39	0.380	-820.08459	123.33447	-602.54211	752.80591	126.64362	-595.61066	-736.47974	-79.24540	517.34058	681.00067	-89.94145	602.36584	-37.36485	906.10101	-784.42731	
40	0.390	-820.11023	123.38487	-602.58765	752.85083	126.65189	-595.59058	-736.46783	-79.23552	517.28992	680.93268	-89.94245	602.34595	-37.30881	906.10577	-784.41644	
41	0.400	-820.07037	123.32182	-602.55774	752.84662	126.64335	-595.56775	-736.48114	-79.21087	517.31818	680.91742	-89.94192	602.33008	-37.30439	906.08917	-784.33594	
42	0.410	-820.12683	123.33667	-602.55804	752.85175	126.64259	-595.62482	-736.44879	-79.20464	517.31677	680.98596	-89.96911	602.32941	-37.26260	906.08765	-784.20959	
43	0.420	-820.10999	123.32175	-602.53333	752.82568	126.63022	-595.57581	-736.46411	-79.20210	517.32690	680.97968	-89.94667	602.33435	-37.37582	906.08063	-784.22546	
44	0.430	-820.12445	123.35284	-602.57898	752.81140	126.66143	-595.61102	-736.42969	-79.24793	517.30359	681.02094	-89.94955	602.37183	-37.32637	906.02747	-784.16443	
45	0.440	-820.09723	123.32378	-602.56287	752.82465	126.66288	-595.58691	-736.45142	-79.21429	517.32043	680.93744	-89.95782	602.33228	-37.36844	906.09766	-784.12299	
46	0.450	-820.12439	123.35545	-602.54327	752.83868	126.65709	-595.60992	-736.44116	-79.22705	517.31885	681.01764	-89.96461	602.34033	-37.35605	906.06128	-784.24182	
47	0.460	-820.12140	123.34736	-602.54651	752.85815	126.65017	-595.57581	-736.43042	-79.25322	517.35150	681.01202	-89.98287	602.37103	-37.39960	906.10730	-784.30597	
48	0.470	-820.08594	123.33839	-602.57196	752.83374	126.65887	-595.59790	-736.43658	-79.22608	517.31067	680.93030	-89.96394	602.31445	-37.37597	906.09534	-784.35413	
